PathFileType	4	(X/Y/Z)	/Users/itak/Documents/Research/Walk-IL/dataset/trc/00295_00010.trc
DataRate	CameraRate	NumFrames	NumMarkers	Units	OrigDataRate	OrigDataStartFrame	OrigNumFrames
100.000000	100.000000	4	54	mm	100.000000	330	661
Frame#	Time	RPSI			LPSI			L3			STRN			T10			C7			CLAV			RBAK			LBAK			LSHO			LUPA			LAEL			LAOL			LWTS			LWPS			LFRA			LHPS			RSHO			RUPA			RAEL			RAOL			RWTS			RWPS			RFRA			RIFD			RHTS			RHPS			RBHD			LFHD			RFHD			LBHD			LHIP			RHIP			RASI			LASI			LKNE			LTHI			LANK			LTIP			LTOE			LMT1			LMT5			LHEE			RKNE			RTHI			RANK			RTIP			RTOE			RMT1			RMT5			RHEE			LIFD			LHTS			*53			
		X1	Y1	Z1	X2	Y2	Z2	X3	Y3	Z3	X4	Y4	Z4	X5	Y5	Z5	X6	Y6	Z6	X7	Y7	Z7	X8	Y8	Z8	X9	Y9	Z9	X10	Y10	Z10	X11	Y11	Z11	X12	Y12	Z12	X13	Y13	Z13	X14	Y14	Z14	X15	Y15	Z15	X16	Y16	Z16	X17	Y17	Z17	X18	Y18	Z18	X19	Y19	Z19	X20	Y20	Z20	X21	Y21	Z21	X22	Y22	Z22	X23	Y23	Z23	X24	Y24	Z24	X25	Y25	Z25	X26	Y26	Z26	X27	Y27	Z27	X28	Y28	Z28	X29	Y29	Z29	X30	Y30	Z30	X31	Y31	Z31	X32	Y32	Z32	X33	Y33	Z33	X34	Y34	Z34	X35	Y35	Z35	X36	Y36	Z36	X37	Y37	Z37	X38	Y38	Z38	X39	Y39	Z39	X40	Y40	Z40	X41	Y41	Z41	X42	Y42	Z42	X43	Y43	Z43	X44	Y44	Z44	X45	Y45	Z45	X46	Y46	Z46	X47	Y47	Z47	X48	Y48	Z48	X49	Y49	Z49	X50	Y50	Z50	X51	Y51	Z51	X52	Y52	Z52	X53	Y53	Z53	X54	Y54	Z54	

331	3.3	-444.2416076660156	979.7188110351562	-356.0774536132812	-500.4358520507812	996.147705078125	-520.1464233398438	-456.8221435546875	1062.996459960938	-450.1910400390625	-206.1879119873047	1230.856323242188	-531.1895751953125	-461.4088745117188	1178.982666015625	-450.4075012207031	-413.9674377441406	1420.298217773438	-482.4945068359375	-261.9806213378906	1335.5986328125	-518.83447265625	-446.5516662597656	1287.725708007812	-391.0055847167969	-456.296142578125	1383.747436523438	-579.1104125976562	-382.1158752441406	1392.66552734375	-651.572265625	-427.7799377441406	1284.291870117188	-728.2448120117188	-422.9848022460938	1087.018188476562	-777.5079345703125	-458.9172973632812	1058.319580078125	-703.4447021484375	-314.9866638183594	878.34814453125	-812.2897338867188	-374.0119018554688	871.1362915039062	-853.4976806640625	-407.7310791015625	988.9891357421875	-810.533447265625	-362.3602294921875	788.3436279296875	-876.5272216796875	-305.4630432128906	1400.551879882812	-347.9281005859375	-295.8094177246094	1344.972412109375	-278.099853515625	-299.4136352539062	1078.94580078125	-215.4521331787109	-352.8572692871094	1067.926147460938	-294.1760559082031	-221.9889068603516	851.9342041015625	-279.0459289550781	-252.0876617431641	849.4971923828125	-198.2876434326172	-275.8893432617188	1011.175842285156	-206.0110931396484	-183.9687805175781	674.893310546875	-250.8173217773438	-168.3481903076172	749.4794311523438	-245.1123046875	-212.2879333496094	748.6790771484375	-189.4159393310547	-397.0780639648438	1563.94580078125	-422.1199340820312	-239.1415710449219	1625.552001953125	-549.9799194335938	-232.1806793212891	1614.29736328125	-458.0068359375	-406.6168518066406	1571.484985351562	-567.82373046875	-472.0642700195312	955.350830078125	-637.607421875	-314.28515625	923.5374755859375	-298.5482788085938	-232.2519226074219	936.0203247070312	-407.4906311035156	-325.2865600585938	950.7349853515625	-642.788818359375	-437.37646484375	486.3356323242188	-654.981689453125	-439.2967224121094	630.4691772460938	-662.7158203125	-560.8563232421875	50.02946472167969	-610.8167114257812	-503.9151611328125	263.7102966308594	-640.9423217773438	-346.0189819335938	35.54987335205078	-630.9796142578125	-399.1210327148438	29.45040321350098	-566.5093994140625	-451.7241821289062	42.09301376342773	-665.9325561523438	-583.8074340820312	46.24493408203125	-539.6932373046875	-133.6571807861328	502.4974975585938	-428.5219116210938	-212.2839965820312	743.1949462890625	-352.4771728515625	-336.1903076171875	94.65448760986328	-452.2086181640625	-155.9240875244141	377.5873413085938	-453.6643371582031	-190.6414031982422	53.49079895019531	-582.6351318359375	-257.3836364746094	67.68008422851562	-592.5751953125	-241.6745300292969	53.12386703491211	-477.8983764648438	-401.0191650390625	113.2499771118164	-473.0436706542969	-301.4986572265625	702.12939453125	-869.666015625	-297.4089660644531	791.12744140625	-867.7734375	nan	nan	nan	
332	3.31	-438.4166259765625	979.8927001953125	-360.0027770996094	-492.6968078613281	996.15966796875	-524.5335693359375	-450.2119140625	1063.16259765625	-454.81396484375	-197.9492340087891	1230.132568359375	-531.6697998046875	-454.4749145507812	1178.227661132812	-455.8193054199219	-406.4162902832031	1419.79150390625	-486.7002258300781	-253.7241363525391	1335.017944335938	-520.1597290039062	-440.8303527832031	1286.873779296875	-396.2460327148438	-446.7999267578125	1383.499145507812	-584.1539306640625	-371.2445678710938	1392.541259765625	-655.03857421875	-415.5125732421875	1284.3828125	-732.8431396484375	-409.2415771484375	1087.635131835938	-783.0680541992188	-446.1180725097656	1058.034790039062	-709.7891235351562	-296.5189819335938	882.4275512695312	-819.1568603515625	-355.0947265625	873.6407470703125	-860.5753784179688	-392.0758666992188	990.3505859375	-816.81396484375	-340.8010864257812	791.4417114257812	-884.116943359375	-300.8432006835938	1399.724487304688	-350.1207580566406	-293.2621154785156	1344.539916992188	-280.0096130371094	-299.7226257324219	1079.685791015625	-214.5521697998047	-350.6690063476562	1067.651611328125	-294.7082824707031	-220.4815368652344	851.8385009765625	-272.8598022460938	-252.9404144287109	850.3402709960938	-193.03125	-276.4466857910156	1012.048217773438	-203.4205017089844	-184.1085815429688	674.941162109375	-242.2088470458984	-168.3125762939453	749.52001953125	-236.4828186035156	-213.9446716308594	749.3184204101562	-182.0622711181641	-390.1405029296875	1563.732299804688	-425.8806762695312	-229.7654113769531	1624.711791992188	-550.8955688476562	-224.4277191162109	1613.513916015625	-458.8694458007812	-396.9828796386719	1571.108276367188	-571.6895141601562	-463.5179443359375	954.8304443359375	-641.5926513671875	-309.2320556640625	923.8378295898438	-300.8015441894531	-225.9705657958984	935.5911865234375	-409.1819763183594	-316.6829833984375	949.6456909179688	-645.4420166015625	-434.15673828125	485.7778625488281	-655.7095947265625	-434.2472229003906	629.84375	-664.2688598632812	-560.67041015625	50.53585815429688	-610.7435302734375	-502.4585571289062	263.8521118164062	-641.1319580078125	-345.9690246582031	35.473388671875	-631.040283203125	-399.07080078125	29.55552101135254	-566.5060424804688	-451.5722351074219	42.19537734985352	-665.8736572265625	-583.718505859375	46.89945602416992	-539.6298828125	-125.7400741577148	503.2316589355469	-428.6419982910156	-206.2675323486328	743.9533081054688	-352.3832397460938	-305.2218017578125	85.2742919921875	-464.9189147949219	-141.5846405029297	377.5636901855469	-456.2731323242188	-153.691650390625	55.30544662475586	-591.5563354492188	-220.8722076416016	65.58177947998047	-603.368896484375	-207.7474670410156	49.90669250488281	-488.4740600585938	-370.3651733398438	100.5327529907227	-487.3027038574219	-277.0240783691406	707.3010864257812	-878.0054321289062	-275.8229675292969	796.6004638671875	-875.4203491210938	nan	nan	nan	
333	3.32	-432.4389343261719	979.906982421875	-363.8172607421875	-484.8187866210938	996.0459594726562	-528.8047485351562	-443.4472961425781	1063.143798828125	-459.2578735351562	-189.6624298095703	1229.27294921875	-532.102783203125	-447.3544311523438	1177.410278320312	-460.9837951660156	-398.7520446777344	1419.172607421875	-490.7220764160156	-245.4271087646484	1334.277099609375	-521.392578125	-434.8696594238281	1285.922607421875	-401.28173828125	-437.2134094238281	1383.126220703125	-588.9514770507812	-360.3641967773438	1392.249877929688	-658.288330078125	-403.2190856933594	1284.297241210938	-737.1554565429688	-395.5231018066406	1088.08544921875	-788.2681274414062	-433.4568176269531	1057.6083984375	-715.8429565429688	-278.1372985839844	886.5599975585938	-825.529541015625	-336.2855224609375	876.0572509765625	-867.0888671875	-376.4703979492188	991.5977783203125	-822.649658203125	-319.2640991210938	794.4983520507812	-890.9832763671875	-296.03759765625	1398.789306640625	-352.2685241699219	-290.4521789550781	1344.01220703125	-281.9291687011719	-299.8938598632812	1080.36962890625	-213.7849731445312	-348.4316101074219	1067.339477539062	-295.1852722167969	-219.1918792724609	851.72509765625	-267.0632019042969	-253.7952575683594	851.1515502929688	-188.1466064453125	-276.9150390625	1012.859741210938	-201.0594482421875	-184.4408721923828	674.9899291992188	-234.1368713378906	-168.5097198486328	749.5438842773438	-228.4317626953125	-215.6053771972656	749.953857421875	-175.2205657958984	-383.1419067382812	1563.351684570312	-429.4955139160156	-220.4072113037109	1623.795532226562	-551.6585693359375	-216.6861267089844	1612.643310546875	-459.5841979980469	-387.3135375976562	1570.58056640625	-575.3770141601562	-454.8594970703125	954.2198486328125	-645.4749755859375	-304.0693359375	923.9181518554688	-302.9357299804688	-219.5184478759766	935.037841796875	-410.7223205566406	-307.9018249511719	948.4903564453125	-647.927734375	-430.7179870605469	485.1978759765625	-656.3245849609375	-428.9380187988281	629.1602783203125	-665.7933959960938	-560.4957885742188	51.09394454956055	-610.6787719726562	-500.8757629394531	264.0037231445312	-641.2996215820312	-345.935791015625	35.41056442260742	-631.0870361328125	-399.0350646972656	29.69142723083496	-566.489013671875	-451.4122619628906	42.31733322143555	-665.805419921875	-583.6365356445312	47.59942626953125	-539.5814208984375	-118.7059478759766	503.4902648925781	-428.7537231445312	-200.3557586669922	744.3104248046875	-352.1971130371094	-273.2794494628906	76.56061553955078	-476.217041015625	-127.7602691650391	377.5050659179688	-458.4059448242188	-116.6313781738281	57.85948181152344	-598.9610595703125	-184.0434265136719	64.19963836669922	-612.5892944335938	-173.28662109375	47.35858154296875	-497.5721435546875	-338.5482788085938	88.41098022460938	-500.3058471679688	-252.4766082763672	712.63427734375	-885.4849243164062	-254.3679351806641	802.1054077148438	-882.407470703125	nan	nan	nan	
334	3.33	-426.2965087890625	979.7325439453125	-367.5156555175781	-476.8083190917969	995.7909545898438	-532.9595947265625	-436.5125122070312	1062.884643554688	-463.525634765625	-181.3315582275391	1228.288452148438	-532.4849853515625	-440.073486328125	1176.534790039062	-465.8854370117188	-390.9723205566406	1418.435791015625	-494.5503234863281	-237.0961608886719	1333.380737304688	-522.5286865234375	-428.6798400878906	1284.873291015625	-406.0906372070312	-427.5579833984375	1382.619384765625	-593.4950561523438	-349.4920349121094	1391.789184570312	-661.321044921875	-390.9190979003906	1284.035522460938	-741.1826171875	-381.8257446289062	1088.367309570312	-793.1156616210938	-420.9431762695312	1057.034790039062	-721.6210327148438	-259.8724060058594	890.6919555664062	-831.3654174804688	-317.5688781738281	878.3877563476562	-873.051025390625	-360.9082946777344	992.7192993164062	-828.0585327148438	-297.7610473632812	797.5215454101562	-897.161376953125	-291.039794921875	1397.756713867188	-354.3535461425781	-287.3592834472656	1343.393310546875	-283.8359985351562	-299.906982421875	1080.985717773438	-213.1575012207031	-346.1282348632812	1066.995971679688	-295.6624755859375	-218.0720062255859	851.5853271484375	-261.6624755859375	-254.6869506835938	851.9078369140625	-183.6554107666016	-277.2998046875	1013.593200683594	-198.9439392089844	-184.9716339111328	675.0136108398438	-226.5713500976562	-168.9144744873047	749.5254516601562	-220.9189453125	-217.2998199462891	750.5563354492188	-168.8818511962891	-376.0667114257812	1562.798950195312	-432.9664306640625	-211.0692901611328	1622.79296875	-552.2802124023438	-208.950927734375	1611.684936523438	-460.1661071777344	-377.6116027832031	1569.899291992188	-578.8921508789062	-446.0721435546875	953.5108642578125	-649.2513427734375	-298.7510681152344	923.733154296875	-304.9798889160156	-212.8885650634766	934.345947265625	-412.1116333007812	-298.9442138671875	947.2632446289062	-650.2335815429688	-427.0679626464844	484.5960388183594	-656.833740234375	-423.3670349121094	628.414794921875	-667.2886352539062	-560.3284912109375	51.70226669311523	-610.6173095703125	-499.1777954101562	264.1683654785156	-641.4495239257812	-345.9170227050781	35.36136627197266	-631.1212768554688	-399.0159912109375	29.83188629150391	-566.456298828125	-451.2423095703125	42.45759963989258	-665.7299194335938	-583.5555419921875	48.35150909423828	-539.5405883789062	-112.4777755737305	503.2680969238281	-428.936767578125	-194.5446014404297	744.2354736328125	-351.9632568359375	-240.6002502441406	68.7078857421875	-486.00927734375	-114.5029754638672	377.4283142089844	-460.0909423828125	-79.75272369384766	61.0998649597168	-604.8014526367188	-147.1687622070312	63.57182693481445	-620.1832885742188	-138.55615234375	45.58817672729492	-505.1281127929688	-305.814453125	77.13685607910156	-511.8902893066406	-227.9396057128906	718.0994262695312	-892.1119384765625	-233.0637969970703	807.6044311523438	-888.7054443359375	nan	nan	nan	
